<svg width="474" height="307" viewBox="0 0 474 307" fill="none" xmlns="http://www.w3.org/2000/svg">
<g filter="url(#filter0_b_504_306)">
<rect width="474" height="306.277" rx="29.1692" fill="black" fill-opacity="0.7"/>
<rect x="1.17356" y="1.17356" width="471.653" height="303.93" rx="27.9957" stroke="url(#paint0_linear_504_306)" stroke-width="2.34712"/>
<path d="M91.625 56.0811C91.573 60.1816 95.2793 62.4697 98.0713 63.8302C100.94 65.226 101.903 66.1212 101.892 67.3696C101.871 69.2799 99.6038 70.123 97.4827 70.1558C93.782 70.2131 91.6303 69.1567 89.9198 68.3577L88.5866 74.5956C90.3029 75.3865 93.4808 76.0762 96.7762 76.1064C104.512 76.1064 109.573 72.288 109.6 66.3676C109.63 58.8538 99.2071 58.4379 99.2783 55.0795C99.3029 54.0611 100.275 52.9744 102.404 52.6981C103.458 52.5585 106.367 52.4517 109.666 53.9707L110.961 47.9353C109.187 47.2894 106.907 46.6709 104.068 46.6709C96.7873 46.6709 91.6663 50.5414 91.625 56.0811ZM123.401 47.1907C121.988 47.1907 120.798 48.0147 120.267 49.2791L109.217 75.6631H116.947L118.485 71.412H127.931L128.823 75.6631H135.636L129.691 47.1907H123.401ZM124.482 54.8822L126.713 65.5739H120.604L124.482 54.8822ZM82.2529 47.1911L76.1598 75.6628H83.5258L89.616 47.1904H82.2529V47.1911ZM71.3561 47.1904L63.6892 66.5702L60.5878 50.0923C60.2239 48.2529 58.7868 47.1907 57.1909 47.1907H44.658L44.4824 48.0175C47.0554 48.5758 49.9787 49.4763 51.7498 50.4399C52.8337 51.0285 53.1427 51.543 53.4988 52.9416L59.3729 75.6631H67.1569L79.091 47.1907H71.3561" fill="white"/>
<path d="M50.1971 192.47V173.7H49.8121L46.1222 182.138H43.459V181.946L47.6623 172.512H52.8923V192.47H59.2454V194.973H43.844V192.47H50.1971ZM78.6673 192.47V194.973H63.4585V191.122C63.4585 190.096 63.6296 189.208 63.9718 188.459C64.3141 187.689 64.7954 187.037 65.4157 186.502C66.0574 185.946 66.8275 185.486 67.7259 185.122C68.6243 184.759 69.6404 184.448 70.7741 184.192C72.6779 183.764 74.0469 183.154 74.8811 182.363C75.7368 181.571 76.1646 180.598 76.1646 179.443V179.25C76.1646 178.673 76.0683 178.106 75.8758 177.55C75.6833 176.994 75.3838 176.491 74.9774 176.042C74.571 175.593 74.0469 175.24 73.4052 174.983C72.7848 174.705 72.0361 174.566 71.1591 174.566C69.512 174.566 68.2286 175.069 67.3088 176.074C66.4104 177.079 65.9612 178.416 65.9612 180.085V181.496H63.2659V179.892C63.2659 178.865 63.4371 177.881 63.7793 176.94C64.1216 175.999 64.6242 175.165 65.2874 174.438C65.9505 173.71 66.774 173.133 67.758 172.705C68.742 172.277 69.8757 172.063 71.1591 172.063C72.464 172.063 73.5977 172.266 74.5603 172.673C75.5228 173.058 76.325 173.582 76.9667 174.245C77.6084 174.887 78.079 175.625 78.3785 176.459C78.6994 177.272 78.8598 178.106 78.8598 178.962V179.539C78.8598 181.25 78.325 182.716 77.2555 183.935C76.186 185.133 74.4747 185.989 72.1217 186.502C70.0682 186.951 68.5601 187.55 67.5976 188.299C66.635 189.026 66.1537 190.096 66.1537 191.507V192.47H78.6673ZM88.4633 183.807V180.085L95.779 175.4V175.015H83.0729V172.512H98.0892V176.619L90.7735 181.304V181.689H92.057C92.9126 181.689 93.7362 181.828 94.5276 182.106C95.3191 182.384 96.0143 182.791 96.6132 183.325C97.2336 183.86 97.7255 184.523 98.0892 185.315C98.4742 186.085 98.6667 186.983 98.6667 188.01V188.588C98.6667 189.55 98.4742 190.449 98.0892 191.283C97.7042 192.117 97.1694 192.844 96.4849 193.465C95.8004 194.064 94.9875 194.545 94.0463 194.908C93.1265 195.251 92.1212 195.422 91.0302 195.422C89.7682 195.422 88.6345 195.229 87.6291 194.844C86.6237 194.459 85.7681 193.935 85.0622 193.272C84.3563 192.588 83.8108 191.796 83.4258 190.898C83.0622 189.978 82.8803 189.005 82.8803 187.978V186.245H85.5756V187.785C85.5756 188.598 85.7039 189.325 85.9606 189.967C86.2387 190.588 86.613 191.122 87.0836 191.572C87.5756 191.999 88.1532 192.331 88.8163 192.566C89.4794 192.801 90.196 192.919 90.9661 192.919C91.672 192.919 92.3244 192.801 92.9233 192.566C93.5436 192.331 94.0784 192.01 94.5276 191.604C94.9768 191.176 95.3298 190.684 95.5865 190.128C95.8432 189.55 95.9715 188.94 95.9715 188.299V188.106C95.9715 186.759 95.5437 185.71 94.6881 184.962C93.8324 184.192 92.7629 183.807 91.4794 183.807H88.4633ZM109.939 172.512H115.169V188.235H118.634V190.737H115.169V194.973H112.474V190.737H102.078V187.015L109.939 172.512ZM104.388 187.85V188.235H112.474V173.667H112.089L104.388 187.85ZM142.301 184.384V172.512H156.355V175.015H144.932V183.037H145.317C145.531 182.609 145.809 182.202 146.151 181.817C146.494 181.411 146.889 181.058 147.339 180.758C147.809 180.459 148.333 180.224 148.911 180.053C149.488 179.86 150.13 179.764 150.836 179.764C151.863 179.764 152.804 179.935 153.66 180.277C154.537 180.619 155.285 181.101 155.906 181.721C156.526 182.341 157.007 183.09 157.35 183.967C157.713 184.844 157.895 185.817 157.895 186.887V187.464C157.895 188.534 157.724 189.55 157.382 190.513C157.039 191.454 156.537 192.299 155.874 193.047C155.21 193.775 154.387 194.352 153.403 194.78C152.419 195.208 151.285 195.422 150.002 195.422C148.697 195.422 147.542 195.229 146.537 194.844C145.531 194.459 144.686 193.925 144.002 193.24C143.317 192.555 142.793 191.753 142.429 190.834C142.087 189.892 141.916 188.876 141.916 187.785V186.887H144.611V187.593C144.611 189.368 145.103 190.705 146.087 191.604C147.093 192.481 148.398 192.919 150.002 192.919C150.857 192.919 151.606 192.769 152.248 192.47C152.911 192.149 153.456 191.732 153.884 191.219C154.333 190.684 154.665 190.074 154.879 189.39C155.093 188.684 155.2 187.956 155.2 187.208V187.015C155.2 186.352 155.082 185.732 154.847 185.154C154.633 184.577 154.323 184.074 153.916 183.646C153.531 183.218 153.05 182.887 152.472 182.652C151.916 182.395 151.307 182.267 150.644 182.267C150.194 182.267 149.777 182.331 149.392 182.459C149.029 182.587 148.708 182.759 148.43 182.972C148.152 183.165 147.916 183.39 147.724 183.646C147.553 183.903 147.435 184.149 147.371 184.384H142.301ZM173.98 179.058C173.98 177.668 173.552 176.555 172.697 175.721C171.841 174.865 170.654 174.438 169.135 174.438C168.408 174.438 167.734 174.566 167.114 174.823C166.515 175.079 165.991 175.454 165.541 175.946C165.113 176.416 164.771 176.983 164.515 177.646C164.279 178.309 164.162 179.037 164.162 179.828V183.165H164.547C165.06 182.224 165.787 181.486 166.728 180.951C167.691 180.416 168.761 180.149 169.937 180.149C170.964 180.149 171.916 180.32 172.793 180.662C173.67 180.983 174.418 181.464 175.039 182.106C175.681 182.748 176.173 183.529 176.515 184.448C176.878 185.347 177.06 186.374 177.06 187.529V187.914C177.06 189.026 176.857 190.042 176.451 190.962C176.066 191.882 175.52 192.673 174.814 193.336C174.13 193.999 173.306 194.513 172.344 194.876C171.402 195.24 170.376 195.422 169.263 195.422C168.151 195.422 167.114 195.24 166.151 194.876C165.21 194.513 164.386 194.01 163.68 193.368C162.996 192.705 162.45 191.924 162.044 191.026C161.659 190.106 161.466 189.101 161.466 188.01V179.828C161.466 178.652 161.67 177.582 162.076 176.619C162.482 175.657 163.039 174.844 163.744 174.181C164.45 173.496 165.263 172.972 166.183 172.609C167.124 172.245 168.13 172.063 169.199 172.063C170.269 172.063 171.263 172.224 172.183 172.544C173.103 172.865 173.894 173.336 174.558 173.956C175.221 174.555 175.734 175.293 176.098 176.17C176.483 177.026 176.675 177.988 176.675 179.058H173.98ZM169.263 193.047C170.033 193.047 170.729 192.93 171.349 192.695C171.991 192.438 172.536 192.085 172.985 191.636C173.434 191.186 173.777 190.652 174.012 190.031C174.247 189.411 174.365 188.727 174.365 187.978V187.593C174.365 186.844 174.237 186.16 173.98 185.539C173.723 184.919 173.37 184.384 172.921 183.935C172.472 183.486 171.926 183.144 171.285 182.908C170.664 182.652 169.991 182.523 169.263 182.523C168.536 182.523 167.862 182.652 167.242 182.908C166.622 183.165 166.076 183.518 165.605 183.967C165.156 184.416 164.803 184.94 164.547 185.539C164.29 186.138 164.162 186.78 164.162 187.464V188.074C164.162 188.78 164.279 189.443 164.515 190.063C164.75 190.662 165.092 191.186 165.541 191.636C165.991 192.085 166.525 192.438 167.146 192.695C167.787 192.93 168.493 193.047 169.263 193.047ZM181.402 172.512H196.418V176.427L186.953 190.737C186.503 191.422 186.161 192.01 185.926 192.502C185.69 192.994 185.573 193.497 185.573 194.01V194.973H182.942V193.818C182.942 193.433 182.974 193.069 183.038 192.727C183.124 192.384 183.241 192.042 183.391 191.7C183.562 191.336 183.765 190.962 184.001 190.577C184.257 190.17 184.557 189.711 184.899 189.197L194.108 175.4V175.015H181.402V172.512ZM208.268 195.422C207.134 195.422 206.107 195.272 205.187 194.973C204.267 194.652 203.476 194.224 202.813 193.689C202.15 193.133 201.636 192.491 201.273 191.764C200.93 191.015 200.759 190.203 200.759 189.325V188.94C200.759 188.17 200.877 187.486 201.112 186.887C201.348 186.288 201.658 185.764 202.043 185.315C202.428 184.866 202.866 184.491 203.358 184.192C203.872 183.892 204.396 183.668 204.931 183.518V183.133C204.439 182.983 203.979 182.759 203.551 182.459C203.123 182.16 202.738 181.807 202.396 181.4C202.075 180.994 201.818 180.534 201.626 180.021C201.433 179.486 201.337 178.908 201.337 178.288V177.903C201.337 177.047 201.508 176.266 201.85 175.561C202.193 174.833 202.674 174.213 203.294 173.7C203.936 173.186 204.685 172.79 205.54 172.512C206.417 172.213 207.39 172.063 208.46 172.063H208.653C209.701 172.063 210.663 172.213 211.54 172.512C212.417 172.79 213.166 173.186 213.786 173.7C214.428 174.213 214.92 174.833 215.262 175.561C215.605 176.266 215.776 177.047 215.776 177.903V178.288C215.776 178.908 215.679 179.486 215.487 180.021C215.294 180.534 215.027 180.994 214.685 181.4C214.364 181.807 213.979 182.16 213.53 182.459C213.102 182.759 212.653 182.983 212.182 183.133V183.518C212.717 183.668 213.23 183.892 213.722 184.192C214.236 184.491 214.685 184.866 215.07 185.315C215.455 185.764 215.765 186.288 216 186.887C216.236 187.486 216.353 188.17 216.353 188.94V189.325C216.353 190.203 216.171 191.015 215.808 191.764C215.466 192.491 214.963 193.133 214.3 193.689C213.637 194.224 212.845 194.652 211.925 194.973C211.006 195.272 209.979 195.422 208.845 195.422H208.268ZM208.749 192.983C210.203 192.983 211.38 192.609 212.278 191.86C213.198 191.112 213.658 190.138 213.658 188.94V188.748C213.658 187.422 213.187 186.395 212.246 185.668C211.326 184.94 210.129 184.577 208.653 184.577H208.46C206.984 184.577 205.775 184.94 204.834 185.668C203.914 186.395 203.455 187.422 203.455 188.748V188.94C203.455 190.138 203.904 191.112 204.802 191.86C205.722 192.609 206.909 192.983 208.364 192.983H208.749ZM208.556 182.074C209.904 182.074 210.995 181.721 211.829 181.015C212.663 180.309 213.08 179.422 213.08 178.352V178.16C213.08 177.069 212.663 176.192 211.829 175.528C211.016 174.844 209.925 174.502 208.556 174.502C207.187 174.502 206.086 174.844 205.251 175.528C204.439 176.192 204.032 177.069 204.032 178.16V178.352C204.032 179.422 204.449 180.309 205.284 181.015C206.118 181.721 207.209 182.074 208.556 182.074ZM243.133 188.427C243.133 189.817 243.56 190.94 244.416 191.796C245.272 192.63 246.459 193.047 247.978 193.047C248.705 193.047 249.368 192.919 249.967 192.662C250.587 192.406 251.111 192.042 251.539 191.572C251.988 191.08 252.331 190.513 252.566 189.871C252.823 189.208 252.951 188.47 252.951 187.657V184.32H252.566C252.074 185.261 251.368 185.999 250.448 186.534C249.528 187.069 248.459 187.336 247.24 187.336C246.192 187.336 245.229 187.176 244.352 186.855C243.475 186.534 242.716 186.063 242.074 185.443C241.432 184.801 240.929 184.031 240.566 183.133C240.223 182.234 240.052 181.208 240.052 180.053V179.668C240.052 178.555 240.245 177.539 240.63 176.619C241.015 175.678 241.55 174.876 242.234 174.213C242.94 173.528 243.764 173.004 244.705 172.641C245.667 172.256 246.716 172.063 247.849 172.063C248.983 172.063 250.02 172.256 250.962 172.641C251.924 173.004 252.748 173.518 253.432 174.181C254.138 174.844 254.684 175.635 255.069 176.555C255.454 177.475 255.646 178.48 255.646 179.571V187.657C255.646 188.855 255.443 189.935 255.037 190.898C254.652 191.839 254.106 192.652 253.4 193.336C252.716 193.999 251.903 194.513 250.962 194.876C250.02 195.24 249.004 195.422 247.913 195.422C246.823 195.422 245.817 195.261 244.897 194.941C243.978 194.62 243.186 194.16 242.523 193.561C241.86 192.941 241.346 192.203 240.983 191.347C240.619 190.47 240.437 189.497 240.437 188.427H243.133ZM247.849 174.438C247.079 174.438 246.373 174.566 245.732 174.823C245.111 175.079 244.577 175.443 244.127 175.913C243.678 176.384 243.336 176.94 243.101 177.582C242.865 178.202 242.748 178.876 242.748 179.603V179.988C242.748 180.737 242.876 181.422 243.133 182.042C243.389 182.641 243.742 183.165 244.191 183.614C244.641 184.042 245.175 184.374 245.796 184.609C246.416 184.844 247.101 184.962 247.849 184.962C248.577 184.962 249.25 184.844 249.871 184.609C250.491 184.352 251.026 184.01 251.475 183.582C251.946 183.154 252.309 182.641 252.566 182.042C252.823 181.443 252.951 180.801 252.951 180.117V179.507C252.951 178.801 252.833 178.138 252.598 177.518C252.363 176.897 252.02 176.363 251.571 175.913C251.122 175.443 250.577 175.079 249.935 174.823C249.315 174.566 248.619 174.438 247.849 174.438ZM259.603 181.24C259.603 178.331 260.298 176.074 261.688 174.47C263.079 172.865 265.014 172.063 267.496 172.063C269.977 172.063 271.913 172.865 273.303 174.47C274.694 176.074 275.389 178.331 275.389 181.24V186.245C275.389 189.24 274.694 191.518 273.303 193.08C271.913 194.641 269.977 195.422 267.496 195.422C265.014 195.422 263.079 194.641 261.688 193.08C260.298 191.518 259.603 189.24 259.603 186.245V181.24ZM267.496 192.983C269.228 192.983 270.523 192.384 271.378 191.186C272.255 189.967 272.694 188.256 272.694 186.053V181.432C272.694 180.406 272.587 179.475 272.373 178.641C272.159 177.785 271.827 177.058 271.378 176.459C270.95 175.839 270.405 175.357 269.742 175.015C269.1 174.673 268.351 174.502 267.496 174.502C266.619 174.502 265.859 174.673 265.218 175.015C264.576 175.357 264.03 175.839 263.581 176.459C263.153 177.058 262.833 177.785 262.619 178.641C262.405 179.475 262.298 180.406 262.298 181.432V186.053C262.298 188.256 262.726 189.967 263.581 191.186C264.458 192.384 265.763 192.983 267.496 192.983ZM265.442 183.743C265.442 183.186 265.645 182.705 266.052 182.299C266.458 181.892 266.94 181.689 267.496 181.689C268.052 181.689 268.533 181.892 268.94 182.299C269.346 182.705 269.549 183.186 269.549 183.743C269.549 184.299 269.346 184.78 268.94 185.186C268.533 185.593 268.052 185.796 267.496 185.796C266.94 185.796 266.458 185.593 266.052 185.186C265.645 184.78 265.442 184.299 265.442 183.743ZM279.249 181.24C279.249 178.331 279.944 176.074 281.335 174.47C282.725 172.865 284.661 172.063 287.142 172.063C289.624 172.063 291.56 172.865 292.95 174.47C294.34 176.074 295.036 178.331 295.036 181.24V186.245C295.036 189.24 294.34 191.518 292.95 193.08C291.56 194.641 289.624 195.422 287.142 195.422C284.661 195.422 282.725 194.641 281.335 193.08C279.944 191.518 279.249 189.24 279.249 186.245V181.24ZM287.142 192.983C288.875 192.983 290.169 192.384 291.025 191.186C291.902 189.967 292.34 188.256 292.34 186.053V181.432C292.34 180.406 292.233 179.475 292.019 178.641C291.805 177.785 291.474 177.058 291.025 176.459C290.597 175.839 290.051 175.357 289.388 175.015C288.747 174.673 287.998 174.502 287.142 174.502C286.265 174.502 285.506 174.673 284.864 175.015C284.222 175.357 283.677 175.839 283.228 176.459C282.8 177.058 282.479 177.785 282.265 178.641C282.051 179.475 281.944 180.406 281.944 181.432V186.053C281.944 188.256 282.372 189.967 283.228 191.186C284.105 192.384 285.41 192.983 287.142 192.983ZM285.089 183.743C285.089 183.186 285.292 182.705 285.698 182.299C286.105 181.892 286.586 181.689 287.142 181.689C287.698 181.689 288.18 181.892 288.586 182.299C288.993 182.705 289.196 183.186 289.196 183.743C289.196 184.299 288.993 184.78 288.586 185.186C288.18 185.593 287.698 185.796 287.142 185.796C286.586 185.796 286.105 185.593 285.698 185.186C285.292 184.78 285.089 184.299 285.089 183.743ZM298.896 181.24C298.896 178.331 299.591 176.074 300.981 174.47C302.372 172.865 304.307 172.063 306.789 172.063C309.27 172.063 311.206 172.865 312.596 174.47C313.987 176.074 314.682 178.331 314.682 181.24V186.245C314.682 189.24 313.987 191.518 312.596 193.08C311.206 194.641 309.27 195.422 306.789 195.422C304.307 195.422 302.372 194.641 300.981 193.08C299.591 191.518 298.896 189.24 298.896 186.245V181.24ZM306.789 192.983C308.521 192.983 309.816 192.384 310.671 191.186C311.548 189.967 311.987 188.256 311.987 186.053V181.432C311.987 180.406 311.88 179.475 311.666 178.641C311.452 177.785 311.12 177.058 310.671 176.459C310.243 175.839 309.698 175.357 309.035 175.015C308.393 174.673 307.644 174.502 306.789 174.502C305.912 174.502 305.152 174.673 304.511 175.015C303.869 175.357 303.324 175.839 302.874 176.459C302.446 177.058 302.126 177.785 301.912 178.641C301.698 179.475 301.591 180.406 301.591 181.432V186.053C301.591 188.256 302.019 189.967 302.874 191.186C303.751 192.384 305.056 192.983 306.789 192.983ZM304.735 183.743C304.735 183.186 304.939 182.705 305.345 182.299C305.751 181.892 306.233 181.689 306.789 181.689C307.345 181.689 307.826 181.892 308.233 182.299C308.639 182.705 308.842 183.186 308.842 183.743C308.842 184.299 308.639 184.78 308.233 185.186C307.826 185.593 307.345 185.796 306.789 185.796C306.233 185.796 305.751 185.593 305.345 185.186C304.939 184.78 304.735 184.299 304.735 183.743ZM338.189 181.24C338.189 178.331 338.884 176.074 340.274 174.47C341.665 172.865 343.6 172.063 346.082 172.063C348.563 172.063 350.499 172.865 351.889 174.47C353.28 176.074 353.975 178.331 353.975 181.24V186.245C353.975 189.24 353.28 191.518 351.889 193.08C350.499 194.641 348.563 195.422 346.082 195.422C343.6 195.422 341.665 194.641 340.274 193.08C338.884 191.518 338.189 189.24 338.189 186.245V181.24ZM346.082 192.983C347.814 192.983 349.109 192.384 349.964 191.186C350.841 189.967 351.28 188.256 351.28 186.053V181.432C351.28 180.406 351.173 179.475 350.959 178.641C350.745 177.785 350.413 177.058 349.964 176.459C349.536 175.839 348.991 175.357 348.328 175.015C347.686 174.673 346.937 174.502 346.082 174.502C345.205 174.502 344.445 174.673 343.804 175.015C343.162 175.357 342.616 175.839 342.167 176.459C341.739 177.058 341.419 177.785 341.205 178.641C340.991 179.475 340.884 180.406 340.884 181.432V186.053C340.884 188.256 341.312 189.967 342.167 191.186C343.044 192.384 344.349 192.983 346.082 192.983ZM344.028 183.743C344.028 183.186 344.231 182.705 344.638 182.299C345.044 181.892 345.526 181.689 346.082 181.689C346.638 181.689 347.119 181.892 347.526 182.299C347.932 182.705 348.135 183.186 348.135 183.743C348.135 184.299 347.932 184.78 347.526 185.186C347.119 185.593 346.638 185.796 346.082 185.796C345.526 185.796 345.044 185.593 344.638 185.186C344.231 184.78 344.028 184.299 344.028 183.743ZM357.835 181.24C357.835 178.331 358.53 176.074 359.921 174.47C361.311 172.865 363.247 172.063 365.728 172.063C368.21 172.063 370.145 172.865 371.536 174.47C372.926 176.074 373.621 178.331 373.621 181.24V186.245C373.621 189.24 372.926 191.518 371.536 193.08C370.145 194.641 368.21 195.422 365.728 195.422C363.247 195.422 361.311 194.641 359.921 193.08C358.53 191.518 357.835 189.24 357.835 186.245V181.24ZM365.728 192.983C367.461 192.983 368.755 192.384 369.611 191.186C370.488 189.967 370.926 188.256 370.926 186.053V181.432C370.926 180.406 370.819 179.475 370.605 178.641C370.391 177.785 370.06 177.058 369.611 176.459C369.183 175.839 368.637 175.357 367.974 175.015C367.333 174.673 366.584 174.502 365.728 174.502C364.851 174.502 364.092 174.673 363.45 175.015C362.808 175.357 362.263 175.839 361.814 176.459C361.386 177.058 361.065 177.785 360.851 178.641C360.637 179.475 360.53 180.406 360.53 181.432V186.053C360.53 188.256 360.958 189.967 361.814 191.186C362.691 192.384 363.996 192.983 365.728 192.983ZM363.675 183.743C363.675 183.186 363.878 182.705 364.284 182.299C364.691 181.892 365.172 181.689 365.728 181.689C366.284 181.689 366.766 181.892 367.172 182.299C367.579 182.705 367.782 183.186 367.782 183.743C367.782 184.299 367.579 184.78 367.172 185.186C366.766 185.593 366.284 185.796 365.728 185.796C365.172 185.796 364.691 185.593 364.284 185.186C363.878 184.78 363.675 184.299 363.675 183.743ZM377.482 181.24C377.482 178.331 378.177 176.074 379.567 174.47C380.958 172.865 382.893 172.063 385.375 172.063C387.856 172.063 389.792 172.865 391.182 174.47C392.573 176.074 393.268 178.331 393.268 181.24V186.245C393.268 189.24 392.573 191.518 391.182 193.08C389.792 194.641 387.856 195.422 385.375 195.422C382.893 195.422 380.958 194.641 379.567 193.08C378.177 191.518 377.482 189.24 377.482 186.245V181.24ZM385.375 192.983C387.107 192.983 388.402 192.384 389.257 191.186C390.134 189.967 390.573 188.256 390.573 186.053V181.432C390.573 180.406 390.466 179.475 390.252 178.641C390.038 177.785 389.706 177.058 389.257 176.459C388.829 175.839 388.284 175.357 387.621 175.015C386.979 174.673 386.23 174.502 385.375 174.502C384.498 174.502 383.738 174.673 383.097 175.015C382.455 175.357 381.91 175.839 381.46 176.459C381.032 177.058 380.712 177.785 380.498 178.641C380.284 179.475 380.177 180.406 380.177 181.432V186.053C380.177 188.256 380.605 189.967 381.46 191.186C382.337 192.384 383.642 192.983 385.375 192.983ZM383.321 183.743C383.321 183.186 383.525 182.705 383.931 182.299C384.337 181.892 384.819 181.689 385.375 181.689C385.931 181.689 386.412 181.892 386.819 182.299C387.225 182.705 387.428 183.186 387.428 183.743C387.428 184.299 387.225 184.78 386.819 185.186C386.412 185.593 385.931 185.796 385.375 185.796C384.819 185.796 384.337 185.593 383.931 185.186C383.525 184.78 383.321 184.299 383.321 183.743ZM397.128 181.24C397.128 178.331 397.823 176.074 399.214 174.47C400.604 172.865 402.54 172.063 405.021 172.063C407.503 172.063 409.438 172.865 410.829 174.47C412.219 176.074 412.914 178.331 412.914 181.24V186.245C412.914 189.24 412.219 191.518 410.829 193.08C409.438 194.641 407.503 195.422 405.021 195.422C402.54 195.422 400.604 194.641 399.214 193.08C397.823 191.518 397.128 189.24 397.128 186.245V181.24ZM405.021 192.983C406.754 192.983 408.048 192.384 408.904 191.186C409.781 189.967 410.219 188.256 410.219 186.053V181.432C410.219 180.406 410.112 179.475 409.898 178.641C409.684 177.785 409.353 177.058 408.904 176.459C408.476 175.839 407.93 175.357 407.267 175.015C406.626 174.673 405.877 174.502 405.021 174.502C404.144 174.502 403.385 174.673 402.743 175.015C402.101 175.357 401.556 175.839 401.107 176.459C400.679 177.058 400.358 177.785 400.144 178.641C399.93 179.475 399.823 180.406 399.823 181.432V186.053C399.823 188.256 400.251 189.967 401.107 191.186C401.984 192.384 403.289 192.983 405.021 192.983ZM402.968 183.743C402.968 183.186 403.171 182.705 403.577 182.299C403.984 181.892 404.465 181.689 405.021 181.689C405.577 181.689 406.059 181.892 406.465 182.299C406.872 182.705 407.075 183.186 407.075 183.743C407.075 184.299 406.872 184.78 406.465 185.186C406.059 185.593 405.577 185.796 405.021 185.796C404.465 185.796 403.984 185.593 403.577 185.186C403.171 184.78 402.968 184.299 402.968 183.743Z" fill="white"/>
<path d="M42.4804 250.271V240.572H44.3093V244.424H44.5587L47.7039 240.572H50.0454L45.9996 245.352L50.184 250.271H47.7731L44.5587 246.336H44.3093V250.271H42.4804ZM50.4885 250.271L53.0379 240.572H56.2246L58.774 250.271H56.8896L56.3631 248.137H52.8993L52.3728 250.271H50.4885ZM53.3288 246.446H55.9336L54.7559 241.722H54.5065L53.3288 246.446ZM59.9349 250.271V240.572H64.1469C64.7566 240.572 65.2877 240.678 65.7403 240.89C66.1929 241.103 66.5439 241.403 66.7933 241.791C67.0427 242.179 67.1674 242.636 67.1674 243.163V243.329C67.1674 243.911 67.0289 244.382 66.7518 244.742C66.4747 245.102 66.1329 245.366 65.7265 245.532V245.781C66.0959 245.8 66.3823 245.929 66.5855 246.169C66.7887 246.4 66.8903 246.71 66.8903 247.098V250.271H65.0614V247.361C65.0614 247.139 65.0014 246.959 64.8813 246.821C64.7704 246.682 64.5811 246.613 64.3132 246.613H61.7638V250.271H59.9349ZM61.7638 244.95H63.953C64.3871 244.95 64.7243 244.835 64.9644 244.604C65.2138 244.363 65.3385 244.049 65.3385 243.661V243.523C65.3385 243.135 65.2184 242.826 64.9783 242.595C64.7381 242.354 64.3963 242.234 63.953 242.234H61.7638V244.95ZM70.7714 250.271V242.234H67.9449V240.572H75.4269V242.234H72.6004V250.271H70.7714ZM76.6723 250.271V240.572H78.5012V250.271H76.6723ZM80.3256 250.271V240.572H82.1545V244.424H82.4039L85.5491 240.572H87.8906L83.8449 245.352L88.0292 250.271H85.6184L82.4039 246.336H82.1545V250.271H80.3256ZM92.2396 250.271V248.663H93.5143V242.179H92.2396V240.572H97.2275C97.8187 240.572 98.3314 240.673 98.7655 240.877C99.2089 241.071 99.5506 241.352 99.7908 241.722C100.04 242.082 100.165 242.516 100.165 243.024V243.163C100.165 243.606 100.082 243.971 99.9155 244.257C99.7492 244.534 99.5506 244.751 99.3197 244.908C99.098 245.056 98.8856 245.162 98.6824 245.227V245.477C98.8856 245.532 99.1073 245.638 99.3474 245.795C99.5876 245.943 99.7908 246.16 99.957 246.446C100.133 246.733 100.22 247.107 100.22 247.569V247.707C100.22 248.243 100.096 248.705 99.8462 249.093C99.5968 249.472 99.2504 249.762 98.8071 249.966C98.3729 250.169 97.8649 250.271 97.283 250.271H92.2396ZM95.3432 248.608H97.0613C97.4585 248.608 97.7771 248.511 98.0173 248.317C98.2667 248.123 98.3914 247.846 98.3914 247.486V247.347C98.3914 246.987 98.2713 246.71 98.0312 246.516C97.791 246.322 97.4677 246.225 97.0613 246.225H95.3432V248.608ZM95.3432 244.562H97.0336C97.4123 244.562 97.7217 244.465 97.9619 244.271C98.2113 244.077 98.336 243.809 98.336 243.468V243.329C98.336 242.978 98.2159 242.71 97.9757 242.525C97.7356 242.331 97.4215 242.234 97.0336 242.234H95.3432V244.562ZM100.971 250.271L103.521 240.572H106.707L109.257 250.271H107.372L106.846 248.137H103.382L102.856 250.271H100.971ZM103.812 246.446H106.416L105.239 241.722H104.989L103.812 246.446ZM110.418 250.271V240.572H113.895L115.821 249.024H116.071V240.572H117.872V250.271H114.394L112.468 241.819H112.219V250.271H110.418ZM123.067 250.464C122.318 250.464 121.658 250.331 121.085 250.063C120.513 249.795 120.065 249.411 119.741 248.913C119.418 248.414 119.256 247.813 119.256 247.111V246.724H121.058V247.111C121.058 247.693 121.238 248.132 121.598 248.428C121.958 248.714 122.448 248.857 123.067 248.857C123.695 248.857 124.161 248.733 124.466 248.483C124.78 248.234 124.937 247.915 124.937 247.527C124.937 247.259 124.859 247.042 124.702 246.876C124.554 246.71 124.332 246.576 124.037 246.474C123.75 246.363 123.399 246.262 122.984 246.169L122.665 246.1C122 245.952 121.427 245.768 120.947 245.546C120.476 245.315 120.111 245.015 119.852 244.645C119.603 244.276 119.478 243.795 119.478 243.204C119.478 242.613 119.617 242.11 119.894 241.694C120.18 241.269 120.577 240.946 121.085 240.724C121.603 240.493 122.208 240.378 122.9 240.378C123.593 240.378 124.207 240.498 124.743 240.738C125.288 240.969 125.713 241.32 126.018 241.791C126.332 242.253 126.489 242.835 126.489 243.537V243.952H124.688V243.537C124.688 243.167 124.614 242.872 124.466 242.65C124.327 242.419 124.124 242.253 123.856 242.151C123.589 242.04 123.27 241.985 122.9 241.985C122.346 241.985 121.935 242.091 121.667 242.304C121.409 242.507 121.279 242.789 121.279 243.149C121.279 243.389 121.339 243.592 121.459 243.758C121.589 243.925 121.778 244.063 122.027 244.174C122.277 244.285 122.596 244.382 122.984 244.465L123.302 244.534C123.995 244.682 124.595 244.872 125.103 245.102C125.621 245.333 126.022 245.638 126.309 246.017C126.595 246.396 126.738 246.881 126.738 247.472C126.738 248.063 126.586 248.585 126.281 249.037C125.986 249.481 125.561 249.832 125.006 250.09C124.461 250.34 123.815 250.464 123.067 250.464ZM127.437 250.271L129.987 240.572H133.173L135.723 250.271H133.838L133.312 248.137H129.848L129.322 250.271H127.437ZM130.278 246.446H132.882L131.705 241.722H131.455L130.278 246.446ZM136.884 250.271V240.572H138.713V248.608H143.146V250.271H136.884Z" fill="white"/>
<path d="M402.26 57.0585C402.709 57.6257 403.044 58.3063 403.265 58.9869C403.487 59.6675 403.593 60.4616 403.587 61.2556C403.58 62.0497 403.46 62.8437 403.228 63.5243C402.996 64.205 402.65 64.8856 402.191 65.4527C401.618 66.2468 401.722 67.3812 402.511 67.9483C403.301 68.5155 404.436 68.4021 405.01 67.608C405.698 66.7005 406.159 65.7931 406.622 64.6587C407.085 63.5243 407.208 62.39 407.217 61.2556C407.226 60.1213 407.009 58.9869 406.678 57.8525C406.346 56.8316 405.787 55.8107 405.114 54.9032C404.553 54.1092 403.42 53.9957 402.621 54.5629C401.822 55.1301 401.699 56.2644 402.26 57.0585Z" fill="white"/>
<path d="M408.526 53.7688C409.87 55.9241 410.643 58.5332 410.62 61.2556C410.598 63.9781 409.782 66.5871 408.403 68.7424C407.83 69.5364 408.161 70.6708 408.95 71.238C409.853 71.8052 410.877 71.4648 411.45 70.6708C413.174 67.9483 414.221 64.7721 414.25 61.2556C414.278 57.8525 413.284 54.5629 411.605 51.8404C411.044 51.0464 409.913 50.7061 409.114 51.2733C408.315 51.8404 407.967 52.8614 408.526 53.7688Z" fill="white"/>
<path d="M415.134 50.3658C417.036 53.542 418.026 57.2854 417.994 61.2556C417.961 65.2259 416.796 68.9693 414.955 72.1455C414.494 73.053 414.712 74.0739 415.615 74.6411C416.519 75.0948 417.542 74.8679 418.116 73.9604C420.416 70.2171 421.699 65.9065 421.737 61.2556C421.775 56.6047 420.563 52.2942 418.325 48.5508C417.879 47.6433 416.746 47.4164 415.835 47.8702C414.923 48.4374 414.687 49.4583 415.134 50.3658Z" fill="white"/>
<path d="M421.741 46.9627C424.089 51.1598 425.524 56.0376 425.481 61.2556C425.438 66.4737 424.037 71.3514 421.507 75.5485C421.045 76.456 421.264 77.4769 422.167 78.0441C423.071 78.4979 424.093 78.271 424.668 77.3635C427.43 72.5992 429.062 67.1543 429.111 61.2556C429.159 55.357 427.616 49.912 424.932 45.1477C424.486 44.2402 423.353 44.0134 422.442 44.4671C421.531 44.9208 421.295 46.0552 421.741 46.9627Z" fill="white"/>
<path d="M170.796 245.048C170.799 244.739 170.914 244.471 171.143 244.245C171.372 244.018 171.64 243.904 171.949 243.904C172.257 243.904 172.524 244.018 172.749 244.245C172.974 244.471 173.085 244.739 173.083 245.048C173.08 245.356 172.965 245.624 172.736 245.851C172.507 246.078 172.239 246.191 171.93 246.191C171.622 246.191 171.355 246.078 171.13 245.851C170.905 245.624 170.793 245.356 170.796 245.048ZM168.436 243.986C168.446 242.752 168.763 241.794 169.385 241.114C170.017 240.433 170.882 240.093 171.98 240.093C173.078 240.093 173.933 240.433 174.545 241.114C175.165 241.794 175.47 242.752 175.46 243.986L175.443 246.109C175.432 247.38 175.111 248.346 174.48 249.009C173.857 249.671 172.997 250.003 171.899 250.003C170.801 250.003 169.941 249.671 169.321 249.009C168.709 248.346 168.408 247.38 168.419 246.109L168.436 243.986ZM171.912 248.369C172.239 248.369 172.512 248.319 172.73 248.219C172.949 248.11 173.127 247.961 173.265 247.77C173.402 247.58 173.5 247.353 173.556 247.09C173.613 246.826 173.642 246.536 173.645 246.218L173.664 243.877C173.667 243.578 173.637 243.296 173.576 243.033C173.515 242.77 173.417 242.543 173.282 242.352C173.147 242.162 172.972 242.012 172.755 241.903C172.538 241.785 172.275 241.726 171.967 241.726C171.658 241.726 171.394 241.785 171.176 241.903C170.957 242.012 170.779 242.162 170.641 242.352C170.503 242.543 170.402 242.77 170.336 243.033C170.27 243.296 170.236 243.578 170.234 243.877L170.215 246.218C170.212 246.536 170.237 246.826 170.289 247.09C170.341 247.353 170.435 247.58 170.569 247.77C170.704 247.961 170.88 248.11 171.097 248.219C171.314 248.319 171.586 248.369 171.912 248.369ZM176.947 245.565L176.99 240.283H183.361L183.347 241.999H178.773L178.752 244.585H178.997C179.126 244.231 179.365 243.927 179.712 243.673C180.068 243.41 180.541 243.278 181.131 243.278C181.576 243.278 181.974 243.355 182.327 243.509C182.68 243.664 182.977 243.877 183.22 244.149C183.463 244.422 183.646 244.748 183.77 245.129C183.903 245.511 183.968 245.928 183.964 246.382L183.963 246.463C183.959 246.944 183.874 247.398 183.707 247.825C183.549 248.251 183.315 248.628 183.004 248.954C182.702 249.272 182.327 249.526 181.881 249.717C181.435 249.907 180.921 250.003 180.341 250.003C179.76 250.003 179.248 249.925 178.804 249.771C178.361 249.608 177.986 249.385 177.68 249.104C177.383 248.814 177.154 248.473 176.994 248.083C176.843 247.684 176.769 247.253 176.773 246.79L176.776 246.463H178.573L178.571 246.627C178.567 247.108 178.709 247.507 178.997 247.825C179.294 248.133 179.728 248.287 180.3 248.287C180.872 248.287 181.322 248.133 181.652 247.825C181.99 247.516 182.161 247.09 182.166 246.545C182.17 246.028 182.051 245.642 181.808 245.388C181.565 245.125 181.244 244.993 180.845 244.993C180.581 244.993 180.368 245.052 180.203 245.17C180.039 245.279 179.934 245.411 179.887 245.565H176.947ZM198.094 238.582L199.642 239.072L195.469 251.514L193.908 251.023L198.094 238.582ZM216.723 248.097L216.709 249.812H210.012L210.027 247.933C210.031 247.434 210.107 247.008 210.256 246.654C210.413 246.3 210.629 246.001 210.903 245.756C211.186 245.511 211.524 245.311 211.915 245.157C212.307 244.993 212.748 244.857 213.239 244.748C213.602 244.667 213.898 244.576 214.126 244.476C214.363 244.367 214.55 244.249 214.687 244.122C214.824 243.986 214.916 243.841 214.963 243.686C215.019 243.523 215.047 243.342 215.049 243.142C215.052 242.761 214.914 242.443 214.635 242.189C214.365 241.935 213.984 241.808 213.494 241.808C212.977 241.808 212.563 241.967 212.252 242.284C211.941 242.593 211.783 243.024 211.778 243.578L211.773 244.177H209.976L209.983 243.414C209.986 242.97 210.067 242.548 210.224 242.148C210.391 241.74 210.621 241.386 210.914 241.087C211.216 240.778 211.581 240.537 212.009 240.365C212.437 240.184 212.919 240.093 213.454 240.093C214.026 240.093 214.524 240.179 214.949 240.351C215.374 240.515 215.727 240.733 216.006 241.005C216.294 241.277 216.505 241.595 216.638 241.958C216.78 242.312 216.85 242.679 216.846 243.06L216.845 243.224C216.839 244.022 216.606 244.685 216.148 245.211C215.699 245.737 214.965 246.119 213.947 246.354C213.52 246.454 213.165 246.559 212.883 246.668C212.61 246.767 212.395 246.881 212.24 247.008C212.085 247.135 211.975 247.276 211.91 247.43C211.854 247.575 211.826 247.743 211.824 247.933L211.823 248.097H216.723ZM220.642 240.283H224.045L223.996 246.3H225.384L225.37 248.015H223.982L223.967 249.812H222.17L222.185 248.015H217.938L217.958 245.538L220.642 240.283ZM219.505 246.055L219.503 246.3H222.199L222.241 241.182H221.996L219.505 246.055Z" fill="white"/>
<path d="M403.213 245.021C403.277 237.237 407.068 230.326 412.874 225.98C409.341 223.674 405.114 222.334 400.563 222.334C388.033 222.334 377.792 232.491 377.689 245.021C377.586 257.551 387.661 267.708 400.191 267.708C404.742 267.708 408.99 266.369 412.561 264.062C406.827 259.716 403.149 252.805 403.213 245.021Z" fill="white"/>
<path d="M415.157 225.786C418.664 223.599 422.8 222.334 427.221 222.334C439.751 222.334 449.826 232.491 449.723 245.021C449.62 257.551 439.379 267.708 426.849 267.708C422.428 267.708 418.312 266.444 414.842 264.256C420.796 259.924 424.702 252.922 424.766 245.021C424.831 237.12 421.041 230.118 415.157 225.786Z" fill="white"/>
</g>
<defs>
<filter id="filter0_b_504_306" x="-29.1692" y="-29.1692" width="532.338" height="364.616" filterUnits="userSpaceOnUse" color-interpolation-filters="sRGB">
<feFlood flood-opacity="0" result="BackgroundImageFix"/>
<feGaussianBlur in="BackgroundImageFix" stdDeviation="14.5846"/>
<feComposite in2="SourceAlpha" operator="in" result="effect1_backgroundBlur_504_306"/>
<feBlend mode="normal" in="SourceGraphic" in2="effect1_backgroundBlur_504_306" result="shape"/>
</filter>
<linearGradient id="paint0_linear_504_306" x1="7.07287" y1="6.20456" x2="479.526" y2="304.847" gradientUnits="userSpaceOnUse">
<stop offset="0.0182506" stop-color="white" stop-opacity="0.5"/>
<stop offset="1" stop-color="white" stop-opacity="0.1"/>
</linearGradient>
</defs>
</svg>
